<svg xmlns="http://www.w3.org/2000/svg" fill-rule="evenodd" clip-rule="evenodd" image-rendering="optimizeQuality" shape-rendering="geometricPrecision" text-rendering="geometricPrecision" viewBox="0 0 512 512" id="Face">
  <path fill="#ebac1d" d="M141 286c-1,0 -2,0 -3,-1 -2,-1 -3,-3 -3,-5l0 -93c0,-54 44,-98 99,-98l44 0c55,0 99,44 99,98l0 93c0,3 -3,6 -6,6l-42 0c0,0 0,0 0,0 -35,-4 -81,-18 -110,-63 -7,13 -27,33 -75,62 -1,1 -2,1 -3,1zm189 -12l35 0 0 -87c0,-47 -39,-86 -87,-86l-44 0c-48,0 -87,39 -87,86l0 82c65,-40 65,-59 65,-61 -1,-2 0,-5 3,-7 3,-1 6,0 8,3 25,51 72,66 107,70zm-118 -65c0,0 0,0 0,0 0,0 0,0 0,0zm0 0c0,0 0,0 0,0 0,0 0,0 0,0zm0 0c0,0 0,0 0,0 0,0 0,0 0,0z" class="color474748 svgShape"></path>
  <path fill="#ebac1d" d="M256 423c-59,0 -108,-65 -111,-149 0,-2 1,-4 3,-5 37,-23 53,-40 59,-49 3,-5 4,-9 5,-10 0,-1 0,-2 0,-2 0,0 0,0 0,0 0,0 0,1 0,1l6 -2 5 -3c25,51 72,66 107,70l31 0c2,0 3,1 4,2 1,1 2,3 2,4 -3,39 -15,75 -35,101 -21,27 -48,42 -76,42zm-99 -146c4,76 47,134 99,134 24,0 48,-13 66,-37 18,-23 29,-54 32,-88l-24 0c-1,0 -1,0 -1,0 -35,-4 -81,-18 -110,-64 -6,12 -23,31 -62,55z" class="color474748 svgShape"></path>
  <path fill="#ebac1d" d="M256 365c-34,0 -67,-8 -96,-24 -1,-1 -2,-2 -3,-3 -7,-20 -11,-41 -12,-64 0,-2 1,-4 3,-5 64,-40 64,-59 64,-61 -1,-3 0,-6 3,-7 3,-1 6,0 8,3 25,51 72,66 107,70l31 0c1,0 3,1 4,2 1,1 2,3 2,4 -2,21 -6,40 -12,58 -1,1 -2,2 -3,3 -29,16 -62,24 -96,24zm-88 -33c26,14 57,21 88,21 31,0 62,-7 89,-21 5,-15 8,-30 9,-46l-24 0c-1,0 -1,0 -1,0 -35,-4 -81,-18 -110,-63 -6,12 -23,30 -62,54 1,19 5,38 11,55zm44 -123c0,0 0,0 0,0 0,0 0,0 0,0zm0 0c0,0 0,0 0,0 0,0 0,0 0,0zm0 0c0,0 0,0 0,0 0,0 0,0 0,0z" class="color474748 svgShape"></path>
  <path fill="#ebac1d" d="M469 318l-426 0c-3,0 -6,-2 -6,-6 0,-3 3,-6 6,-6l426 0c3,0 6,3 6,6 0,4 -3,6 -6,6z" class="color474748 svgShape"></path>
  <path fill="#efa600" d="M144 512l-80 0c-35,0 -64,-29 -64,-64l0 -80c0,-14 11,-25 25,-25 13,0 24,11 24,25l0 80c0,8 7,15 15,15l80 0c14,0 25,11 25,24 0,14 -11,25 -25,25zm-119 -157c-7,0 -13,6 -13,13l0 79c0,29 24,53 52,53l80 0c7,0 13,-6 13,-13 0,-7 -6,-12 -13,-12l-80 0c-14,0 -27,-13 -27,-27l0 -80c0,-7 -5,-13 -12,-13zm423 157l-80 0c-14,0 -25,-11 -25,-25 0,-13 11,-24 25,-24l80 0c8,0 15,-7 15,-15l0 -80c0,-14 11,-25 24,-25 14,0 25,11 25,25l0 80c0,35 -29,64 -64,64zm-80 -37c-7,0 -13,5 -13,12 0,7 6,13 13,13l80 0c28,0 52,-24 52,-53l0 -79c0,-7 -6,-13 -13,-13 -7,0 -12,6 -12,13l0 79c0,15 -12,27 -27,27l-80 0 0 1zm119 -306c-13,0 -24,-11 -24,-25l0 -80c0,-8 -7,-15 -15,-15l-80 0c-14,0 -25,-11 -25,-24 0,-14 11,-25 25,-25l80 0c35,0 64,29 64,64l0 80c0,14 -11,25 -25,25zm-119 -157c-7,0 -13,6 -13,13 0,7 6,12 13,12l80 0c14,0 27,12 27,27l0 80c0,7 5,13 12,13 7,0 13,-6 13,-13l0 -80c0,-28 -24,-52 -53,-52l-79 0zm-343 157c-14,0 -25,-11 -25,-25l0 -80c0,-35 29,-64 64,-64l80 0c14,0 25,11 25,25 0,13 -11,24 -25,24l-80 0c-8,0 -15,7 -15,15l0 80c0,14 -11,25 -24,25zm39 -157c-28,0 -52,24 -52,52l0 80c0,7 6,13 13,13 7,0 12,-6 12,-13l0 -80c0,-14 12,-27 27,-27l80 0c7,0 13,-5 13,-12 0,-7 -6,-13 -13,-13l-80 0 0 0z" class="color00afef svgShape"></path>
</svg>
