<svg xmlns="http://www.w3.org/2000/svg" viewBox="0 0 32 32" id="Fingerprint">
  <path fill="#ebac1d" d="M29.777 16a12.375 12.375 0 0 1-12.375 12.375A12.375 12.375 0 0 1 5.027 16 12.375 12.375 0 0 1 17.402 3.625 12.375 12.375 0 0 1 29.777 16z" class="colorffcc71 svgShape"></path>
  <g stroke="#403d36" class="colorStroke3a3640 svgStroke">
    <path fill="#403d36" stroke="none" d="M-972.938 989.43a9.001 9.001 0 0 0-6.144 2.877 8.991 8.991 0 0 0-2.32 7.114h1.004a7.99 7.99 0 0 1 2.05-6.436 7.997 7.997 0 0 1 7.534-2.392.5.5 0 0 0 .207-.979 8.991 8.991 0 0 0-2.33-.183zm4.42.965a.5.5 0 0 0-.226.946c2.999 1.58 4.61 4.83 4.195 8.08h1.01a8.998 8.998 0 0 0-4.738-8.965.5.5 0 0 0-.24-.061z" color="#000" font-family="sans-serif" font-weight="400" overflow="visible" style="line-height:normal;text-indent:0;text-align:start;text-decoration-line:none;text-decoration-style:solid;text-decoration-color:#000;text-transform:none;white-space:normal;isolation:auto;mix-blend-mode:normal;solid-color:#000;solid-opacity:1" transform="translate(988.475 -982.422)" class="color3a3640 svgShape"></path>
    <path fill="#403d36" stroke="none" d="M-972.484 991.686a6.707 6.707 0 0 0-2.989.703c-2.45 1.218-3.985 3.836-3.732 7.032h1c-.26-2.88 1.06-5.085 3.178-6.137a5.731 5.731 0 0 1 6.502.977c.823.781 1.142 1.912 1.244 3.181.051.648.042 1.32.021 1.979h1.004a18.87 18.87 0 0 0-.03-2.059c-.11-1.39-.476-2.804-1.552-3.826a6.724 6.724 0 0 0-4.646-1.85z" color="#000" font-family="sans-serif" font-weight="400" overflow="visible" style="line-height:normal;text-indent:0;text-align:start;text-decoration-line:none;text-decoration-style:solid;text-decoration-color:#000;text-transform:none;white-space:normal;isolation:auto;mix-blend-mode:normal;solid-color:#000;solid-opacity:1" transform="translate(988.475 -982.422)" class="color3a3640 svgShape"></path>
    <path fill="#403d36" stroke="none" d="M-970.793 994.513a.5.5 0 0 0-.326.867c.797.757 1.133 2.084 1.246 3.455.016.197.02.39.03.586h1.001c-.01-.223-.016-.443-.035-.67-.122-1.47-.451-3.05-1.553-4.096a.5.5 0 0 0-.363-.142zm-4.512.566a.5.5 0 0 0-.347.143c-1.084 1.03-1.386 2.466-1.434 3.927-.003.09.001.182 0 .272h.998c.001-.078-.002-.161 0-.239.044-1.346.31-2.46 1.125-3.234a.5.5 0 0 0-.342-.869zm2.617 1.81c-.398-.06-.78.02-1.128.147-1 .365-1.49 1.394-1.448 2.385h1.004c-.041-.628.267-1.255.787-1.446.254-.093.458-.123.635-.098.177.027.352.104.576.329.168.167.252.416.285.78.012.126.005.293.006.434h1.008c0-.172 0-.346-.017-.525-.045-.478-.176-.998-.575-1.396-.342-.343-.734-.55-1.132-.61z" color="#000" font-family="sans-serif" font-weight="400" overflow="visible" style="line-height:normal;text-indent:0;text-align:start;text-decoration-line:none;text-decoration-style:solid;text-decoration-color:#000;text-transform:none;white-space:normal;isolation:auto;mix-blend-mode:normal;solid-color:#000;solid-opacity:1" transform="translate(988.475 -982.422)" class="color3a3640 svgShape"></path>
    <path fill="#403d36" stroke="none" d="M-984.475-19.941v1h3.125c.03 2.205-.351 3.787-.351 3.787-.173.654.818.9.97.24 0 0 .402-1.695.377-4.027h1.25c.007.623-.01 1.162-.062 1.52-.094.643-.201.84-.201.84-.299.602.607 1.045.898.44 0 0 .184-.397.291-1.136.06-.41.082-.996.076-1.664h1.079c.04.718.082 1.43.082 2.097 0 1.19-.55 3.268-.55 3.268-.172.641.788.904.966.264 0 0 .584-2.059.584-3.532 0-.695-.04-1.4-.08-2.097h1.279c.214 1.506.328 3.012-.047 4.529-.172.654.817.899.97.24.408-1.647.29-3.277.085-4.77h1.796l.096 4.942c.016.664 1.01.644 1-.02l-.096-4.921h1.125c.004.373.015.718.047 1.005l.309 2.752c.074.663 1.068.552.994-.11l-.309-2.753a9.777 9.777 0 0 1-.035-.894h1.51c.036 1.496.566 3.902.566 3.902.14.652 1.118.443.979-.209 0 0-.503-2.442-.543-3.693h1.402c-.137 2.71.364 4.744.364 4.744.162.645 1.13.403.97-.242 0 0-.457-1.935-.32-4.502h3.404v-1z" color="#000" font-family="sans-serif" font-weight="400" overflow="visible" style="line-height:normal;text-indent:0;text-align:start;text-decoration-line:none;text-decoration-style:solid;text-decoration-color:#000;text-transform:none;white-space:normal;isolation:auto;mix-blend-mode:normal;solid-color:#000;solid-opacity:1" transform="translate(988.475 37.94)" class="color3a3640 svgShape"></path>
    <path fill="none" d="M2.5 8V4A1.5 1.5 0 0 1 4 2.5h4m16 0h4A1.5 1.5 0 0 1 29.5 4v4m-27 16v4A1.5 1.5 0 0 0 4 29.5h4m16 0h4a1.5 1.5 0 0 0 1.5-1.5v-4"></path>
  </g>
</svg>
